# xmcd CD database file
#
# Track frame offsets:
#	150
#	29922
#	63485
#	96717
#	125135
#	155430
#
# Disc length: 2499 seconds
#
# Revision: 0
# Processed by: cddbd v1.5.2PL0 Copyright (c) Steve Scherf et al.
# Submitted via: CDex 1.70beta3
#
DISCID=5c09c106
DTITLE=Baby Face Willette - Face To Face
DYEAR=1961
DGENRE=Jazz
TTITLE0=Swingin' At Sugar Ray's
TTITLE1=Goin' Down
TTITLE2=Whatever Lola Wants
TTITLE3=Face To Face
TTITLE4=Somethin' Strange
TTITLE5=High 'N Low
EXTD=YEAR: 1961
EXTT0=
EXTT1=
EXTT2=
EXTT3=
EXTT4=
EXTT5=
PLAYORDER=
